<svg id="visual" viewBox="0 0 960 200" width="960" height="200" xmlns="http://www.w3.org/2000/svg" xmlns:xlink="http://www.w3.org/1999/xlink" version="1.1"><rect x="0" y="0" width="960" height="200" fill="#E53935"></rect><path d="M0 99L17.8 91.2C35.7 83.3 71.3 67.7 106.8 59C142.3 50.3 177.7 48.7 213.2 45.3C248.7 42 284.3 37 320 44.3C355.7 51.7 391.3 71.3 426.8 79.8C462.3 88.3 497.7 85.7 533.2 74C568.7 62.3 604.3 41.7 640 42.5C675.7 43.3 711.3 65.7 746.8 71.3C782.3 77 817.7 66 853.2 63.3C888.7 60.7 924.3 66.3 942.2 69.2L960 72L960 201L942.2 201C924.3 201 888.7 201 853.2 201C817.7 201 782.3 201 746.8 201C711.3 201 675.7 201 640 201C604.3 201 568.7 201 533.2 201C497.7 201 462.3 201 426.8 201C391.3 201 355.7 201 320 201C284.3 201 248.7 201 213.2 201C177.7 201 142.3 201 106.8 201C71.3 201 35.7 201 17.8 201L0 201Z" fill="#ef5250"></path><path d="M0 63L17.8 66.5C35.7 70 71.3 77 106.8 80C142.3 83 177.7 82 213.2 85.5C248.7 89 284.3 97 320 97.8C355.7 98.7 391.3 92.3 426.8 91C462.3 89.7 497.7 93.3 533.2 88.3C568.7 83.3 604.3 69.7 640 71.2C675.7 72.7 711.3 89.3 746.8 89.5C782.3 89.7 817.7 73.3 853.2 70.2C888.7 67 924.3 77 942.2 82L960 87L960 201L942.2 201C924.3 201 888.7 201 853.2 201C817.7 201 782.3 201 746.8 201C711.3 201 675.7 201 640 201C604.3 201 568.7 201 533.2 201C497.7 201 462.3 201 426.8 201C391.3 201 355.7 201 320 201C284.3 201 248.7 201 213.2 201C177.7 201 142.3 201 106.8 201C71.3 201 35.7 201 17.8 201L0 201Z" fill="#f05e5b"></path><path d="M0 110L17.8 109.7C35.7 109.3 71.3 108.7 106.8 107.8C142.3 107 177.7 106 213.2 107.3C248.7 108.7 284.3 112.3 320 109.8C355.7 107.3 391.3 98.7 426.8 92.7C462.3 86.7 497.7 83.3 533.2 89.3C568.7 95.3 604.3 110.7 640 108.2C675.7 105.7 711.3 85.3 746.8 80.2C782.3 75 817.7 85 853.2 95.3C888.7 105.7 924.3 116.3 942.2 121.7L960 127L960 201L942.2 201C924.3 201 888.7 201 853.2 201C817.7 201 782.3 201 746.8 201C711.3 201 675.7 201 640 201C604.3 201 568.7 201 533.2 201C497.7 201 462.3 201 426.8 201C391.3 201 355.7 201 320 201C284.3 201 248.7 201 213.2 201C177.7 201 142.3 201 106.8 201C71.3 201 35.7 201 17.8 201L0 201Z" fill="#f16866"></path><path d="M0 119L17.8 115.3C35.7 111.7 71.3 104.3 106.8 99C142.3 93.7 177.7 90.3 213.2 96C248.7 101.7 284.3 116.3 320 119.3C355.7 122.3 391.3 113.7 426.8 113.8C462.3 114 497.7 123 533.2 120.3C568.7 117.7 604.3 103.3 640 101.2C675.7 99 711.3 109 746.8 116.5C782.3 124 817.7 129 853.2 130.2C888.7 131.3 924.3 128.7 942.2 127.3L960 126L960 201L942.2 201C924.3 201 888.7 201 853.2 201C817.7 201 782.3 201 746.8 201C711.3 201 675.7 201 640 201C604.3 201 568.7 201 533.2 201C497.7 201 462.3 201 426.8 201C391.3 201 355.7 201 320 201C284.3 201 248.7 201 213.2 201C177.7 201 142.3 201 106.8 201C71.3 201 35.7 201 17.8 201L0 201Z" fill="#f27371"></path><path d="M0 144L17.8 140C35.7 136 71.3 128 106.8 125.7C142.3 123.3 177.7 126.7 213.2 129.2C248.7 131.7 284.3 133.3 320 132.8C355.7 132.3 391.3 129.7 426.8 125.7C462.3 121.7 497.7 116.3 533.2 120.5C568.7 124.7 604.3 138.3 640 141.7C675.7 145 711.3 138 746.8 138C782.3 138 817.7 145 853.2 145.7C888.7 146.3 924.3 140.7 942.2 137.8L960 135L960 201L942.2 201C924.3 201 888.7 201 853.2 201C817.7 201 782.3 201 746.8 201C711.3 201 675.7 201 640 201C604.3 201 568.7 201 533.2 201C497.7 201 462.3 201 426.8 201C391.3 201 355.7 201 320 201C284.3 201 248.7 201 213.2 201C177.7 201 142.3 201 106.8 201C71.3 201 35.7 201 17.8 201L0 201Z" fill="#f27d7b"></path><path d="M0 124L17.8 124.3C35.7 124.7 71.3 125.3 106.8 128.7C142.3 132 177.7 138 213.2 138C248.7 138 284.3 132 320 130.7C355.7 129.3 391.3 132.7 426.8 138.2C462.3 143.7 497.7 151.3 533.2 154.8C568.7 158.3 604.3 157.7 640 156.8C675.7 156 711.3 155 746.8 155.8C782.3 156.7 817.7 159.3 853.2 159C888.7 158.7 924.3 155.3 942.2 153.7L960 152L960 201L942.2 201C924.3 201 888.7 201 853.2 201C817.7 201 782.3 201 746.8 201C711.3 201 675.7 201 640 201C604.3 201 568.7 201 533.2 201C497.7 201 462.3 201 426.8 201C391.3 201 355.7 201 320 201C284.3 201 248.7 201 213.2 201C177.7 201 142.3 201 106.8 201C71.3 201 35.7 201 17.8 201L0 201Z" fill="#f18786"></path><path d="M0 142L17.8 146.2C35.7 150.3 71.3 158.7 106.8 158.5C142.3 158.3 177.7 149.7 213.2 151.7C248.7 153.7 284.3 166.3 320 167.8C355.7 169.3 391.3 159.7 426.8 153.5C462.3 147.3 497.7 144.7 533.2 143.8C568.7 143 604.3 144 640 145.5C675.7 147 711.3 149 746.8 149.3C782.3 149.7 817.7 148.3 853.2 150.7C888.7 153 924.3 159 942.2 162L960 165L960 201L942.2 201C924.3 201 888.7 201 853.2 201C817.7 201 782.3 201 746.8 201C711.3 201 675.7 201 640 201C604.3 201 568.7 201 533.2 201C497.7 201 462.3 201 426.8 201C391.3 201 355.7 201 320 201C284.3 201 248.7 201 213.2 201C177.7 201 142.3 201 106.8 201C71.3 201 35.7 201 17.8 201L0 201Z" fill="#f09090"></path><path d="M0 189L17.8 186.8C35.7 184.7 71.3 180.3 106.8 179.5C142.3 178.7 177.7 181.3 213.2 184C248.7 186.7 284.3 189.3 320 187.8C355.7 186.3 391.3 180.7 426.8 180C462.3 179.3 497.7 183.7 533.2 185C568.7 186.3 604.3 184.7 640 183.3C675.7 182 711.3 181 746.8 178.2C782.3 175.3 817.7 170.7 853.2 172C888.7 173.3 924.3 180.7 942.2 184.3L960 188L960 201L942.2 201C924.3 201 888.7 201 853.2 201C817.7 201 782.3 201 746.8 201C711.3 201 675.7 201 640 201C604.3 201 568.7 201 533.2 201C497.7 201 462.3 201 426.8 201C391.3 201 355.7 201 320 201C284.3 201 248.7 201 213.2 201C177.7 201 142.3 201 106.8 201C71.3 201 35.7 201 17.8 201L0 201Z" fill="#ef9a9a"></path></svg>